<?xml version="1.0"?>
<svg xmlns="http://www.w3.org/2000/svg" xmlns:xlink="http://www.w3.org/1999/xlink" xmlns:svgjs="http://svgjs.com/svgjs" version="1.1" width="512" height="512" x="0" y="0" viewBox="0 0 511.997 511.997" style="enable-background:new 0 0 512 512" xml:space="preserve" class=""><g><g xmlns="http://www.w3.org/2000/svg"><path d="m510.85 431.05c-2.322-5.605-7.792-9.26-13.858-9.26h-15.096v-.002c0-74.668-60.75-135.414-135.42-135.414-74.668 0-135.414 60.746-135.414 135.414v75.208c0 8.284 6.716 15 15 15h60.207c8.284 0 15-6.716 15-15v-75.208c0-24.927 20.282-45.207 45.213-45.207 24.927 0 45.207 20.28 45.207 45.207l-15.111.002c-6.067 0-11.537 3.654-13.858 9.26-2.321 5.605-1.038 12.057 3.252 16.347l60.207 60.206c2.929 2.929 6.768 4.393 10.606 4.393 3.839 0 7.678-1.465 10.607-4.393l60.207-60.206c4.289-4.29 5.573-10.741 3.251-16.347z" fill="#40b5fb" data-original="#000000" style="" class=""/><path d="m195.958 90.207h15.102v82.439c36.941 10.51 68.647 33.569 90.209 64.249v-146.688h15.104c6.067 0 11.537-3.654 13.858-9.26 2.321-5.605 1.038-12.057-3.252-16.347l-60.208-60.207c-5.857-5.857-15.355-5.857-21.213 0l-60.207 60.207c-4.29 4.29-5.573 10.741-3.252 16.347 2.322 5.605 7.792 9.26 13.859 9.26z" fill="#40b5fb" data-original="#000000" style="" class=""/><path d="m210.832 327.231c18.406-26.323 44.264-47.065 74.494-59.137-22.827-42.647-67.818-71.728-119.481-71.728-24.927 0-45.207-20.28-45.207-45.207v-16.164h14.781c.008.001.014 0 .02 0 8.284 0 15-6.716 15-15 0-4.377-1.875-8.316-4.866-11.059l-59.755-59.756c-2.813-2.813-6.628-4.393-10.606-4.393s-7.794 1.58-10.607 4.393l-60.207 60.208c-4.29 4.29-5.574 10.741-3.252 16.347 2.322 5.605 7.792 9.26 13.858 9.26h15.26l.166 16.24c.045 74.63 60.778 135.338 135.423 135.338 23.393 0 42.691 17.859 44.979 40.658z" fill="#40b5fb" data-original="#000000" style="" class=""/></g></g></svg>
