<?xml version="1.0"?>
<svg xmlns="http://www.w3.org/2000/svg" xmlns:xlink="http://www.w3.org/1999/xlink" xmlns:svgjs="http://svgjs.com/svgjs" version="1.1" width="512" height="512" x="0" y="0" viewBox="0 0 64 64" style="enable-background:new 0 0 512 512" xml:space="preserve" class=""><g><path xmlns="http://www.w3.org/2000/svg" d="M13,38h1.466a9.786,9.786,0,0,0,.673,1.619L14.1,40.657a1,1,0,0,0,0,1.414L16.929,44.9a1,1,0,0,0,1.414,0l1.038-1.038A9.786,9.786,0,0,0,21,44.534V46a1,1,0,0,0,1,1h4a1,1,0,0,0,1-1V44.534a9.786,9.786,0,0,0,1.619-.673L29.657,44.9a1,1,0,0,0,1.414,0L33.9,42.071a1,1,0,0,0,0-1.414l-1.038-1.038A9.786,9.786,0,0,0,33.534,38H35a1,1,0,0,0,1-1V33a1,1,0,0,0-1-1H33.534a9.858,9.858,0,0,0-.673-1.619L33.9,29.343a1,1,0,0,0,0-1.414L31.071,25.1a1,1,0,0,0-1.414,0l-1.038,1.037A9.9,9.9,0,0,0,27,25.466V24a1,1,0,0,0-1-1H22a1,1,0,0,0-1,1v1.466a9.9,9.9,0,0,0-1.619.672L18.343,25.1a1.029,1.029,0,0,0-1.414,0L14.1,27.929a1,1,0,0,0,0,1.414l1.038,1.038A9.858,9.858,0,0,0,14.466,32H13a1,1,0,0,0-1,1v4A1,1,0,0,0,13,38Zm1-4h1.23a1,1,0,0,0,.975-.778,7.959,7.959,0,0,1,1.027-2.473,1,1,0,0,0-.138-1.241l-.872-.872,1.414-1.414.872.872a1,1,0,0,0,1.24.139,7.913,7.913,0,0,1,2.474-1.027A1,1,0,0,0,23,26.23V25h2v1.23a1,1,0,0,0,.778.976,7.913,7.913,0,0,1,2.474,1.027,1,1,0,0,0,1.24-.139l.872-.872,1.414,1.414-.872.872a1,1,0,0,0-.138,1.241A7.959,7.959,0,0,1,31.8,33.222,1,1,0,0,0,32.77,34H34v2H32.77a1,1,0,0,0-.975.778,7.964,7.964,0,0,1-1.027,2.474,1,1,0,0,0,.138,1.24l.872.872-1.414,1.414-.872-.872a1,1,0,0,0-1.24-.138A7.964,7.964,0,0,1,25.778,42.8,1,1,0,0,0,25,43.77V45H23V43.77a1,1,0,0,0-.778-.975,7.964,7.964,0,0,1-2.474-1.027,1,1,0,0,0-1.24.138l-.872.872-1.414-1.414.872-.872a1,1,0,0,0,.138-1.24A7.964,7.964,0,0,1,16.2,36.778,1,1,0,0,0,15.23,36H14Z" fill="#40b5fb" data-original="#000000" style="" class=""/><path xmlns="http://www.w3.org/2000/svg" d="M24,41a6,6,0,1,0-6-6A6.006,6.006,0,0,0,24,41Zm0-10a4,4,0,1,1-4,4A4,4,0,0,1,24,31Z" fill="#40b5fb" data-original="#000000" style="" class=""/><path xmlns="http://www.w3.org/2000/svg" d="M53.617,40.924A.987.987,0,0,0,54,41a1,1,0,0,0,.707-.293l8-8a1,1,0,0,0,0-1.414l-8-8A1,1,0,0,0,53,24v3H47V26a12.953,12.953,0,0,0-4.119-9.467L56.707,2.707,55.293,1.293,41.32,15.266A12.918,12.918,0,0,0,34,13H22A14.015,14.015,0,0,0,8,26.774l-6.908,14.8A1,1,0,0,0,2,43H8V55a1,1,0,0,0,1,1H19v6a1,1,0,0,0,1,1H41a1,1,0,0,0,1-1V50.236l.274-.548L55.293,62.707l1.414-1.414L43.217,47.8,46.9,40.447A1,1,0,0,0,47,40V37h6v3A1,1,0,0,0,53.617,40.924ZM45,26v1H37.835a16.014,16.014,0,0,0-2.33-3.091l5.963-5.963A10.963,10.963,0,0,1,45,26ZM22,15H34a10.93,10.93,0,0,1,5.872,1.714l-5.84,5.84A15.919,15.919,0,0,0,24,19H13.081A11.961,11.961,0,0,1,22,15ZM3.57,41,9.906,27.423A1,1,0,0,0,10,27a11.9,11.9,0,0,1,1.624-6H24a14,14,0,0,1,0,28H10V42a1,1,0,0,0-1-1ZM40.1,49.553A1,1,0,0,0,40,50V61H21V55a1,1,0,0,0-1-1H10V51H24a15.975,15.975,0,0,0,12.948-6.638L40.783,48.2ZM45,39.764l-3.274,6.548L38.054,42.64A15.863,15.863,0,0,0,39.861,37H45ZM40,35a15.894,15.894,0,0,0-1.178-6H54a1,1,0,0,0,1-1V26.414L60.586,32,55,37.586V36a1,1,0,0,0-1-1Z" fill="#40b5fb" data-original="#000000" style="" class=""/></g></svg>
